<?xml version="1.0" encoding="utf-8"?>
<!-- Generator: Adobe Illustrator 27.0.0, SVG Export Plug-In . SVG Version: 6.00 Build 0)  -->
<svg version="1.1" id="a" xmlns="http://www.w3.org/2000/svg" xmlns:xlink="http://www.w3.org/1999/xlink" x="0px" y="0px"
	 viewBox="0 0 128 128" style="enable-background:new 0 0 128 128;" xml:space="preserve">
<style type="text/css">
	.st0{fill:#FAFAF9;}
	.st1{fill:#0D6042;}
</style>
<path id="Backplate" class="st0" d="M111.4,0H16.8C7.6,0,0,7.6,0,16.8V111c0,9.4,7.6,17,16.8,17h94.3c9.4,0,16.8-7.6,16.8-16.8V16.8
	C128.2,7.6,120.6,0,111.4,0z"/>
<g>
	<path class="st1" d="M31.2,56H24l-0.9,5h7.2c0.5,0,0.9-0.2,1.2-0.5c0.4-0.3,0.6-0.7,0.7-1.1l0.3-1.8c0.1-0.5,0-0.8-0.3-1.1
		C32,56.1,31.7,56,31.2,56z"/>
	<path class="st1" d="M29.3,67H22l-0.9,5h7.2c0.5,0,0.9-0.2,1.2-0.5c0.4-0.3,0.6-0.7,0.7-1.1l0.3-1.8c0.1-0.5,0-0.8-0.3-1.1
		C30.1,67.2,29.7,67,29.3,67z"/>
	<path class="st1" d="M107.7,5H20.5C12,5,5,12,5,20.5v86.9C5,116,12,123,20.5,123h87c8.7,0,15.5-7,15.5-15.5v-87
		C123.2,12,116.2,5,107.7,5z M38.8,56.2l-0.4,2.5c-0.2,1.3-0.7,2.4-1.6,3.4S35,63.7,33.9,64c1,0.3,1.7,0.9,2.2,1.9
		c0.5,1,0.6,2.1,0.4,3.4l-0.4,2.5c-0.2,0.9-0.5,1.7-0.9,2.4s-1,1.4-1.7,2c-0.7,0.6-1.4,1-2.2,1.3c-0.8,0.3-1.7,0.5-2.5,0.5H16.3
		c-1.5,0-2.1-0.8-1.9-2.3l4.2-24c0.2-1.3,1-1.9,2.3-1.9h12.7c0.9,0,1.6,0.2,2.4,0.5c0.7,0.3,1.3,0.8,1.8,1.3c0.5,0.6,0.8,1.2,1,2
		S39,55.3,38.8,56.2z M59.1,74.3l-0.3,1.9c-0.2,1.3-1,1.9-2.3,1.9H41.9c-1.5,0-2.1-0.8-1.9-2.3l4.2-24c0.2-1.3,1-1.9,2.3-1.9h1.8
		c1.5,0,2.1,0.8,1.9,2.3L46.7,72h10.6C58.8,72,59.4,72.8,59.1,74.3z M88.6,52.2l-4.2,24c-0.2,1.3-1,1.9-2.3,1.9h-2.9
		c-1.2,0-2-0.5-2.5-1.6L70.5,61l-2.7,15.2c-0.2,1.3-1,1.9-2.3,1.9h-1.8c-1.5,0-2.1-0.8-1.9-2.3l4.2-24c0.2-1.3,1-1.9,2.3-1.9h2.8
		c1.2,0,2,0.5,2.5,1.6L80,67l2.7-15.2c0.2-1.3,1-1.9,2.3-1.9h1.8C88.2,49.9,88.9,50.7,88.6,52.2z M113.5,56.2l-0.4,1.9
		c-0.2,1.3-1,1.9-2.3,1.9h-1.8c-0.7,0-1.3-0.2-1.6-0.6c-0.3-0.4-0.4-1-0.3-1.6l0-0.2c0.1-0.5,0-0.8-0.3-1.1
		c-0.3-0.3-0.6-0.5-1.1-0.5h-5.6c-0.5,0-0.9,0.2-1.2,0.5c-0.4,0.3-0.6,0.7-0.7,1.1l-2.3,12.9c-0.1,0.5,0,0.8,0.2,1.1
		c0.2,0.3,0.6,0.5,1,0.5h5.6c0.5,0,0.9-0.2,1.2-0.5c0.4-0.3,0.6-0.7,0.7-1.1l0.1-0.5c0.2-1.3,1-1.9,2.3-1.9h1.8
		c1.5,0,2.1,0.8,1.9,2.3l-0.2,1.5c-0.2,0.9-0.5,1.7-0.9,2.4c-0.5,0.8-1,1.4-1.7,2c-0.7,0.6-1.4,1-2.2,1.3c-0.8,0.3-1.7,0.5-2.5,0.5
		H95c-0.9,0-1.7-0.2-2.4-0.5c-0.7-0.3-1.3-0.8-1.8-1.3c-0.5-0.6-0.8-1.2-1-2s-0.2-1.6,0-2.4l2.7-15.6c0.2-0.9,0.5-1.7,0.9-2.4
		c0.5-0.8,1-1.4,1.7-2c0.7-0.6,1.4-1,2.2-1.3c0.8-0.3,1.7-0.5,2.6-0.5h8.4c0.9,0,1.6,0.2,2.4,0.5c0.7,0.3,1.3,0.8,1.8,1.3
		c0.5,0.6,0.8,1.2,1,2S113.7,55.3,113.5,56.2z"/>
</g>
</svg>
